<svg xmlns="http://www.w3.org/2000/svg" width="32.625" height="26.375" viewBox="0 0 32.625 26.375">
  <metadata><?xpacket begin="﻿" id="W5M0MpCehiHzreSzNTczkc9d"?>
<x:xmpmeta xmlns:x="adobe:ns:meta/" x:xmptk="Adobe XMP Core 5.6-c138 79.159824, 2016/09/14-01:09:01        ">
   <rdf:RDF xmlns:rdf="http://www.w3.org/1999/02/22-rdf-syntax-ns#">
      <rdf:Description rdf:about=""/>
   </rdf:RDF>
</x:xmpmeta>
                                                                                                    
                                                                                                    
                                                                                                    
                                                                                                    
                                                                                                    
                                                                                                    
                                                                                                    
                                                                                                    
                                                                                                    
                                                                                                    
                                                                                                    
                                                                                                    
                                                                                                    
                                                                                                    
                                                                                                    
                                                                                                    
                                                                                                    
                                                                                                    
                                                                                                    
                                                                                                    
                           
<?xpacket end="w"?></metadata>
<defs>
    <style>
      .cls-1 {
        fill: #fff;
        fill-rule: evenodd;
      }
    </style>
  </defs>
  <path id="Direction" class="cls-1" d="M27.782,99.344c0,0.022.012,0.041,0.013,0.064a1.254,1.254,0,0,0,.375.878,1.131,1.131,0,0,0,.155.1l12.133,11.773a1.365,1.365,0,0,0,1.891,0,1.27,1.27,0,0,0,0-1.834l-9.957-9.662h26.66a1.319,1.319,0,1,0,0-2.638H32.392l9.957-9.662a1.27,1.27,0,0,0,0-1.834,1.366,1.366,0,0,0-1.891,0L28.326,98.3a1.316,1.316,0,0,0-.155.1,1.256,1.256,0,0,0-.375.879C27.794,99.3,27.782,99.322,27.782,99.344Z" transform="translate(-27.781 -86.156)"/>
</svg>
